<?xml version="1.0" standalone="no"?>
<!DOCTYPE svg PUBLIC "-//W3C//DTD SVG 20010904//EN"
 "http://www.w3.org/TR/2001/REC-SVG-20010904/DTD/svg10.dtd">
<svg version="1.0" xmlns="http://www.w3.org/2000/svg"
 width="954.000000pt" height="954.000000pt" viewBox="0 0 954.000000 954.000000"
 preserveAspectRatio="xMidYMid meet">
<metadata>
Created by potrace 1.11, written by Peter Selinger 2001-2013
</metadata>
<g transform="translate(0.000000,954.000000) scale(0.100000,-0.100000)"
fill="#000000" stroke="none">
<path d="M4548 8245 c-2 -2 -43 -6 -93 -9 -49 -4 -101 -9 -115 -12 -14 -2 -41
-6 -60 -8 -115 -13 -331 -59 -490 -106 -58 -17 -112 -32 -120 -35 -50 -14
-242 -90 -340 -134 -307 -137 -651 -361 -883 -573 -104 -95 -2350 -2344 -2375
-2378 -45 -61 -66 -132 -66 -225 -1 -99 19 -169 67 -235 23 -32 2316 -2328
2382 -2385 28 -24 64 -55 80 -70 165 -144 485 -350 720 -461 245 -116 585
-233 785 -268 19 -3 46 -8 60 -11 35 -7 196 -33 245 -40 206 -27 633 -27 835
0 14 2 48 6 75 10 560 73 1135 310 1605 662 181 136 313 264 1438 1388 1109
1108 1163 1164 1193 1230 58 123 50 279 -18 389 -27 43 -2282 2302 -2418 2423
-260 229 -595 437 -935 581 -281 119 -663 219 -941 248 -35 3 -93 9 -129 14
-61 7 -495 11 -502 5z"/>
</g>
</svg>
